<?xml version="1.0" encoding="utf-8"?>
<!-- Generator: Adobe Illustrator 23.1.1, SVG Export Plug-In . SVG Version: 6.00 Build 0)  -->
<svg version="1.1" id="Layer_1" xmlns="http://www.w3.org/2000/svg" xmlns:xlink="http://www.w3.org/1999/xlink" x="0px" y="0px"
	 viewBox="0 0 59 26" style="enable-background:new 0 0 59 26;" xml:space="preserve">
<style type="text/css">
	.st0{fill:#32AFCA;}
	.st1{fill:none;}
	.st2{font-family:'Ubuntu-Bold';}
	.st3{font-size:10.3903px;}
</style>
<path class="st0" d="M5.9,19L5.9,19c0.5,0,0.9-0.3,1.1-0.7l3.5-9.5c0-0.1,0.1-0.3,0.1-0.4l0,0c0-0.6-0.5-1-1-1H4.1c-0.6,0-1,0.5-1,1
	l0,0c0,0.6,0.5,1.1,1,1.1h2.1c0.7,0,1.2,0.7,1,1.4L5,17.6C4.8,18.3,5.2,18.9,5.9,19z"/>
<g>
	<path class="st1" d="M2.7,13.2L5.6,15c0.4,0.3,0.9,0,0.9-0.5v-1.3c0-0.2-0.1-0.4-0.3-0.5l-1.8-1.2c-0.2-0.1-0.5-0.1-0.7,0l-1.2,0.7
		C2.3,12.4,2.3,13,2.7,13.2z"/>
	<path class="st1" d="M1.1,10.4v0.8c0,0.5,0.5,0.8,0.9,0.5l0.6-0.4c0.4-0.2,0.4-0.8,0-1.1L2.1,9.9C1.7,9.6,1.1,9.9,1.1,10.4z"/>
	<path class="st1" d="M10.1,13.8L10.1,13.8l1-0.6c0.4-0.2,0.4-0.8,0-1.1L10,11.5c-0.2-0.1-0.5-0.1-0.7,0l-1.7,1.1
		c-0.2,0.1-0.3,0.3-0.3,0.5v1.3c0,0.5,0.5,0.8,0.9,0.5L10.1,13.8L10.1,13.8z"/>
	<path class="st1" d="M11.4,8.1L7.2,5.7C7,5.6,6.8,5.6,6.6,5.7L2.4,8.1C2,8.4,1.9,8.9,2.3,9.2L6.5,12c0.2,0.1,0.5,0.1,0.7,0l4.3-2.8
		C11.9,8.9,11.8,8.4,11.4,8.1z"/>
	<path class="st1" d="M12.7,11.2v-0.8c0-0.5-0.5-0.8-1-0.5l-0.6,0.4c-0.4,0.3-0.4,0.8,0,1.1l0.6,0.4C12.2,12,12.7,11.7,12.7,11.2z"
		/>
	<path class="st1" d="M12.7,14.3L12.7,14.3c0-0.6-0.5-0.9-0.9-0.6h-0.1c-0.4,0.2-0.4,0.8,0,1.1l0.1,0.1
		C12.2,15.1,12.7,14.8,12.7,14.3z"/>
	<path class="st1" d="M7.3,16.8v0.8c0,0.5,0.5,0.8,0.9,0.5L8.4,18l2.8-1.7c0.4-0.2,0.4-0.8,0-1.1l-0.7-0.4c-0.2-0.1-0.5-0.1-0.7,0
		l-2.2,1.4C7.4,16.4,7.3,16.6,7.3,16.8z"/>
	<path class="st1" d="M1.1,14.2L1.1,14.2c0,0.5,0.6,0.8,1,0.5l0,0c0.4-0.3,0.4-0.8,0-1l0,0C1.6,13.5,1.1,13.8,1.1,14.2z"/>
	<path class="st1" d="M6.2,16.3l-2.3-1.4c-0.2-0.1-0.5-0.1-0.7,0l-0.6,0.4c-0.4,0.3-0.4,0.8,0,1l2,1.2l1,0.6C6,18.3,6.5,18,6.5,17.6
		v-0.8C6.5,16.6,6.4,16.4,6.2,16.3z"/>
	<path class="st0" d="M6.6,5.1L0.7,8.5C0.5,8.6,0.4,8.8,0.4,9v6.8c0,0.2,0.1,0.4,0.3,0.5l3.5,2l2.4,1.4C6.8,20,7,20,7.2,19.9L8.7,19
		l4.4-2.5c0.2-0.1,0.3-0.3,0.3-0.5V9c0-0.2-0.1-0.4-0.3-0.5L7.2,5.1C7,5,6.8,5,6.6,5.1z M7.2,5.9l4.2,2.4c0.4,0.2,0.4,0.8,0,1.1
		l-4.3,2.8c-0.2,0.1-0.5,0.1-0.7,0L2.3,9.4C1.9,9.2,2,8.6,2.4,8.4L6.6,6C6.8,5.8,7,5.8,7.2,5.9z M5.6,15.3l-2.9-1.8
		c-0.4-0.2-0.4-0.8,0-1.1l1.2-0.7c0.2-0.1,0.5-0.1,0.7,0l1.8,1.2c0.2,0.1,0.3,0.3,0.3,0.5v1.3C6.5,15.2,6,15.5,5.6,15.3z M7.6,12.9
		l1.7-1.1c0.2-0.1,0.5-0.1,0.7,0l1.2,0.7c0.4,0.2,0.4,0.8,0,1.1l-1,0.6l0,0l0,0l-1.9,1.2c-0.4,0.3-0.9,0-0.9-0.5v-1.3
		C7.3,13.2,7.4,13,7.6,12.9z M2.1,10.1l0.6,0.4c0.4,0.3,0.4,0.8,0,1.1L2.1,12c-0.4,0.3-0.9,0-0.9-0.5v-0.8
		C1.1,10.2,1.7,9.9,2.1,10.1z M2.1,14L2.1,14c0.4,0.2,0.4,0.8,0,1l0,0c-0.4,0.3-1,0-1-0.5l0,0C1.1,14,1.6,13.7,2.1,14z M6.4,16.6
		l0.2,0.1v1.1c0,0.5-0.5,0.8-0.9,0.5l-1-0.6l-2-1.2c-0.4-0.2-0.4-0.8,0-1l0.6-0.4C3.5,15,3.8,15,4,15.1L6.4,16.6 M8.4,18.3l-0.2,0.1
		c-0.4,0.2-0.9-0.1-0.9-0.5V17c0-0.2,0.1-0.4,0.3-0.5l2.2-1.4c0.2-0.1,0.5-0.1,0.7,0l0.7,0.4c0.4,0.2,0.4,0.8,0,1.1L8.4,18.3z
		 M11.7,15.1L11.7,15.1c-0.5-0.3-0.5-0.9-0.1-1.1h0.1c0.4-0.3,0.9,0,0.9,0.5v0.1C12.7,15.1,12.2,15.4,11.7,15.1z M11.8,12l-0.6-0.4
		c-0.4-0.2-0.4-0.8,0-1.1l0.6-0.4c0.4-0.3,1,0,1,0.5v0.8C12.7,11.9,12.2,12.2,11.8,12z"/>
</g>
<text transform="matrix(1 0 0 1 18.3444 16.4527)" class="st0 st2 st3">7QUBES</text>
</svg>
