<?xml version="1.0" encoding="utf-8"?>
<!-- Generator: Adobe Illustrator 23.1.1, SVG Export Plug-In . SVG Version: 6.00 Build 0)  -->
<svg version="1.1" id="Layer_1" xmlns="http://www.w3.org/2000/svg" xmlns:xlink="http://www.w3.org/1999/xlink" x="0px" y="0px"
	 viewBox="0 0 117.9 41.8" style="enable-background:new 0 0 117.9 41.8;" xml:space="preserve">
<style type="text/css">
	.st0{fill:#32AFCA;}
	.st1{fill:none;}
	.st2{enable-background:new    ;}
</style>
<path class="st0" d="M11.7,32.3L11.7,32.3c1,0,1.8-0.6,2.2-1.4l7-19c0-0.2,0.2-0.6,0.2-0.8l0,0c0-1.2-1-2-2-2h-11c-1.2,0-2,1-2,2
	l0,0c0,1.2,1,2.2,2,2.2h4.2c1.4,0,2.4,1.4,2,2.8L9.9,29.6C9.5,31,10.3,32.1,11.7,32.3z"/>
<g>
	<path class="st1" d="M5.3,20.8l5.8,3.6c0.8,0.6,1.8,0,1.8-1v-2.6c0-0.4-0.2-0.8-0.6-1l-3.6-2.4c-0.4-0.2-1-0.2-1.4,0l-2.4,1.4
		C4.5,19.2,4.5,20.4,5.3,20.8z"/>
	<path class="st1" d="M2.2,15.2v1.6c0,1,1,1.6,1.8,1L5.1,17c0.8-0.4,0.8-1.6,0-2.2l-1-0.6C3.3,13.6,2.2,14.2,2.2,15.2z"/>
	<path class="st1" d="M20.1,22L20.1,22l2-1.2c0.8-0.4,0.8-1.6,0-2.2l-2.2-1.2c-0.4-0.2-1-0.2-1.4,0l-3.4,2.2c-0.4,0.2-0.6,0.6-0.6,1
		v2.6c0,1,1,1.6,1.8,1L20.1,22L20.1,22z"/>
	<path class="st1" d="M22.7,10.6l-8.4-4.8c-0.4-0.2-0.8-0.2-1.2,0l-8.4,4.8c-0.8,0.6-1,1.6-0.2,2.2l8.4,5.6c0.4,0.2,1,0.2,1.4,0
		l8.6-5.6C23.7,12.2,23.5,11.2,22.7,10.6z"/>
	<path class="st1" d="M25.3,16.8v-1.6c0-1-1-1.6-2-1L22.1,15c-0.8,0.6-0.8,1.6,0,2.2l1.2,0.8C24.3,18.4,25.3,17.8,25.3,16.8z"/>
	<path class="st1" d="M25.3,23L25.3,23c0-1.2-1-1.8-1.8-1.2h-0.2c-0.8,0.4-0.8,1.6,0,2.2l0.2,0.2C24.3,24.6,25.3,24,25.3,23z"/>
	<path class="st1" d="M14.5,28v1.6c0,1,1,1.6,1.8,1l0.4-0.2l5.6-3.4c0.8-0.4,0.8-1.6,0-2.2L20.9,24c-0.4-0.2-1-0.2-1.4,0l-4.4,2.8
		C14.7,27.2,14.5,27.6,14.5,28z"/>
	<path class="st1" d="M2.2,22.8L2.2,22.8c0,1,1.2,1.6,2,1l0,0c0.8-0.6,0.8-1.6,0-2l0,0C3.1,21.4,2.2,22,2.2,22.8z"/>
	<path class="st1" d="M12.3,27l-4.6-2.8c-0.4-0.2-1-0.2-1.4,0L5.1,25c-0.8,0.6-0.8,1.6,0,2l4,2.4l2,1.2c0.8,0.4,1.8-0.2,1.8-1V28
		C12.9,27.6,12.7,27.2,12.3,27z"/>
	<path class="st0" d="M13.1,4.6L1.4,11.4c-0.4,0.2-0.6,0.6-0.6,1V26c0,0.4,0.2,0.8,0.6,1l7,4l4.8,2.8c0.4,0.6,0.8,0.6,1.2,0.4l3-1.8
		l8.8-5c0.4-0.2,0.6-0.6,0.6-1v-14c0-0.4-0.2-0.8-0.6-1L14.3,4.6C13.9,4.4,13.5,4.4,13.1,4.6z M14.3,6.2l8.4,4.8
		c0.8,0.4,0.8,1.6,0,2.2l-8.6,5.6c-0.4,0.2-1,0.2-1.4,0l-8.2-5.6c-0.8-0.4-0.6-1.6,0.2-2l8.4-4.8C13.5,6,13.9,6,14.3,6.2z M11.1,25
		l-5.8-3.6c-0.8-0.4-0.8-1.6,0-2.2l2.4-1.4c0.4-0.2,1-0.2,1.4,0l3.6,2.4c0.4,0.2,0.6,0.6,0.6,1v2.6C12.9,24.8,11.9,25.4,11.1,25z
		 M15.1,20.2l3.4-2.2c0.4-0.2,1-0.2,1.4,0l2.4,1.4c0.8,0.4,0.8,1.6,0,2.2l-2,1.2l0,0l0,0l-3.8,2.4c-0.8,0.6-1.8,0-1.8-1v-2.6
		C14.5,20.8,14.7,20.4,15.1,20.2z M4.1,14.6l1.2,0.8c0.8,0.6,0.8,1.6,0,2.2l-1.2,0.8c-0.8,0.6-1.8,0-1.8-1v-1.6
		C2.2,14.8,3.3,14.2,4.1,14.6z M4.1,22.4L4.1,22.4c0.8,0.4,0.8,1.6,0,2l0,0c-0.8,0.6-2,0-2-1l0,0C2.2,22.4,3.1,21.8,4.1,22.4z
		 M12.7,27.6l0.4,0.2V30c0,1-1,1.6-1.8,1l-2-1.2l-4-2.4c-0.8-0.4-0.8-1.6,0-2l1.2-0.8c0.4-0.2,1-0.2,1.4,0L12.7,27.6 M16.7,31
		l-0.4,0.2c-0.8,0.4-1.8-0.2-1.8-1v-1.8c0-0.4,0.2-0.8,0.6-1l4.4-2.8c0.4-0.2,1-0.2,1.4,0l1.4,0.8c0.8,0.4,0.8,1.6,0,2.2L16.7,31z
		 M23.3,24.6L23.3,24.6c-1-0.6-1-1.8-0.2-2.2h0.2c0.8-0.6,1.8,0,1.8,1v0.2C25.3,24.6,24.3,25.2,23.3,24.6z M23.5,18.4l-1.2-0.8
		c-0.8-0.4-0.8-1.6,0-2.2l1.2-0.8c0.8-0.6,2,0,2,1v1.6C25.3,18.2,24.3,18.8,23.5,18.4z"/>
</g>
<g class="st2">
	<path class="st0" d="M39.5,27.3c0.1-1,0.3-2.1,0.5-3.2c0.3-1.1,0.6-2.2,1-3.2c0.4-1.1,0.8-2,1.3-3c0.5-0.9,0.9-1.7,1.4-2.4h-6.2
		v-2.6h10.1v2.2c-0.4,0.5-0.9,1.2-1.5,2S45,19,44.5,20c-0.5,1.1-0.9,2.2-1.2,3.5c-0.4,1.2-0.6,2.5-0.7,3.7H39.5z"/>
	<path class="st0" d="M63.7,20.1c0,1-0.1,1.9-0.4,2.7c-0.2,0.8-0.6,1.5-1,2.1c-0.4,0.6-1,1.1-1.6,1.5c-0.6,0.4-1.3,0.7-2.1,0.9
		c0.1,0.3,0.2,0.5,0.5,0.7c0.2,0.2,0.5,0.3,0.9,0.4c0.4,0.1,0.8,0.2,1.3,0.2c0.5,0.1,1,0.1,1.5,0.1l-0.7,2.4c-1.1,0-2-0.1-2.8-0.3
		c-0.8-0.2-1.4-0.4-1.9-0.7c-0.5-0.3-1-0.7-1.3-1.1s-0.5-1-0.7-1.5c-0.9-0.1-1.7-0.3-2.4-0.7c-0.7-0.4-1.4-0.9-1.9-1.5
		c-0.5-0.6-1-1.4-1.3-2.2c-0.3-0.9-0.5-1.9-0.5-3c0-1.2,0.2-2.3,0.6-3.2c0.4-0.9,0.9-1.7,1.6-2.4c0.7-0.6,1.4-1.1,2.3-1.4
		c0.9-0.3,1.8-0.5,2.7-0.5c1,0,1.9,0.2,2.8,0.5c0.9,0.3,1.6,0.8,2.3,1.4c0.7,0.6,1.2,1.4,1.5,2.4C63.5,17.8,63.7,18.8,63.7,20.1z
		 M52.7,20.1c0,0.7,0.1,1.3,0.3,1.9c0.2,0.6,0.4,1.1,0.7,1.5c0.3,0.4,0.7,0.7,1.2,0.9c0.5,0.2,1,0.3,1.6,0.3c0.6,0,1.1-0.1,1.6-0.3
		c0.5-0.2,0.9-0.5,1.2-0.9c0.3-0.4,0.6-0.9,0.7-1.5c0.2-0.6,0.3-1.2,0.3-1.9c0-0.7-0.1-1.3-0.3-1.9c-0.2-0.6-0.4-1.1-0.7-1.5
		c-0.3-0.4-0.7-0.7-1.2-0.9c-0.5-0.2-1-0.3-1.6-0.3c-0.6,0-1.1,0.1-1.6,0.3c-0.5,0.2-0.9,0.5-1.2,1c-0.3,0.4-0.6,0.9-0.7,1.5
		C52.8,18.7,52.7,19.4,52.7,20.1z"/>
	<path class="st0" d="M72,27.6c-1,0-1.9-0.1-2.6-0.4c-0.7-0.3-1.3-0.7-1.8-1.2c-0.5-0.5-0.8-1.1-1.1-1.8s-0.3-1.5-0.3-2.3v-8.9h3.2
		v8.7c0,0.6,0.1,1.1,0.2,1.5c0.1,0.4,0.3,0.7,0.5,1c0.2,0.3,0.5,0.4,0.8,0.5c0.3,0.1,0.7,0.2,1.1,0.2c0.8,0,1.4-0.2,1.9-0.7
		c0.5-0.5,0.7-1.3,0.7-2.5v-8.7h3.2v8.9c0,0.8-0.1,1.6-0.4,2.3c-0.2,0.7-0.6,1.3-1.1,1.8c-0.5,0.5-1.1,0.9-1.8,1.2
		C73.9,27.4,73,27.6,72,27.6z"/>
	<path class="st0" d="M85.8,27.5c-0.8,0-1.6,0-2.4-0.1c-0.8,0-1.6-0.2-2.4-0.3V13.1c0.7-0.1,1.4-0.2,2.2-0.3
		c0.8-0.1,1.5-0.1,2.2-0.1c0.9,0,1.8,0.1,2.5,0.2c0.8,0.1,1.4,0.4,2,0.7c0.6,0.3,1,0.7,1.3,1.3c0.3,0.5,0.5,1.2,0.5,1.9
		c0,1.1-0.6,2.1-1.7,2.7c0.9,0.3,1.5,0.8,1.9,1.4c0.3,0.6,0.5,1.3,0.5,2c0,1.5-0.5,2.6-1.6,3.4C89.6,27.1,88,27.5,85.8,27.5z
		 M84.2,18.5h1.6c1,0,1.7-0.1,2.1-0.4c0.4-0.3,0.6-0.7,0.6-1.2c0-0.6-0.2-1-0.7-1.2c-0.4-0.2-1.1-0.4-2-0.4c-0.3,0-0.6,0-0.9,0
		c-0.3,0-0.6,0-0.8,0.1V18.5z M84.2,21v3.7c0.2,0,0.5,0,0.8,0.1c0.3,0,0.6,0,0.9,0c1,0,1.7-0.1,2.3-0.4s0.9-0.8,0.9-1.5
		c0-0.7-0.2-1.1-0.7-1.4c-0.5-0.3-1.2-0.4-2.1-0.4H84.2z"/>
	<path class="st0" d="M94.9,27.3V12.9h9.7v2.7h-6.5v2.8h5.7v2.7h-5.7v3.5h6.9v2.7H94.9z"/>
	<path class="st0" d="M111.4,24.8c0.5,0,0.8,0,1.1-0.1c0.3-0.1,0.5-0.2,0.7-0.3c0.2-0.1,0.3-0.3,0.4-0.5c0.1-0.2,0.1-0.4,0.1-0.6
		c0-0.5-0.2-0.9-0.7-1.2c-0.4-0.3-1.2-0.6-2.3-1c-0.5-0.2-0.9-0.4-1.4-0.6c-0.5-0.2-0.9-0.5-1.3-0.8c-0.4-0.3-0.7-0.7-0.9-1.2
		c-0.2-0.5-0.4-1-0.4-1.7c0-0.7,0.1-1.3,0.4-1.8c0.2-0.5,0.6-1,1.1-1.4c0.5-0.4,1-0.7,1.7-0.9c0.7-0.2,1.4-0.3,2.2-0.3
		c1,0,1.8,0.1,2.5,0.3c0.7,0.2,1.3,0.4,1.7,0.7l-0.9,2.6c-0.4-0.2-0.8-0.4-1.3-0.5c-0.5-0.2-1.1-0.2-1.8-0.2c-0.8,0-1.3,0.1-1.7,0.3
		c-0.3,0.2-0.5,0.5-0.5,1c0,0.3,0.1,0.5,0.2,0.7c0.1,0.2,0.3,0.3,0.5,0.5c0.2,0.1,0.5,0.3,0.8,0.4c0.3,0.1,0.6,0.2,1,0.4
		c0.7,0.3,1.4,0.5,1.9,0.8c0.6,0.3,1,0.6,1.4,0.9c0.4,0.4,0.6,0.8,0.8,1.3c0.2,0.5,0.3,1.1,0.3,1.8c0,1.3-0.5,2.4-1.4,3.1
		c-0.9,0.7-2.4,1.1-4.2,1.1c-0.6,0-1.2,0-1.7-0.1c-0.5-0.1-1-0.2-1.4-0.3c-0.4-0.1-0.7-0.2-1-0.4c-0.3-0.1-0.5-0.2-0.7-0.4l0.9-2.6
		c0.4,0.2,1,0.4,1.6,0.6C109.7,24.7,110.5,24.8,111.4,24.8z"/>
</g>
</svg>
